{
  "accessors": [
    {
      "bufferView": 2,
      "componentType": 5126,
      "count": 3017,
      "max": [
        0.6454141736030579,
        -0.9289745688438416,
        -28.63492202758789
      ],
      "min": [
        -0.6454141736030579,
        -2.509457588195801,
        -41.689090728759766
      ],
      "type": "VEC3"
    },
    {
      "bufferView": 2,
      "byteOffset": 36204,
      "componentType": 5126,
      "count": 3017,
      "max": [
        0.9999998211860657,
        0.9999920725822449,
        0.999744713306427
      ],
      "min": [
        -0.9999998211860657,
        -0.999955415725708,
        -0.9963842630386353
      ],
      "type": "VEC3"
    },
    {
      "bufferView": 1,
      "componentType": 5126,
      "count": 3017,
      "max": [
        0.8356789946556091,
        0.38552814722061157
      ],
      "min": [
        0.17962679266929626,
        0.1950332522392273
      ],
      "type": "VEC2"
    },
    {
      "bufferView": 0,
      "componentType": 5125,
      "count": 14496,
      "type": "SCALAR"
    },
    {
      "bufferView": 2,
      "byteOffset": 72408,
      "componentType": 5126,
      "count": 304,
      "max": [
        4.741870880126953,
        0.0,
        5.582444667816162
      ],
      "min": [
        -4.375776290893555,
        -0.14000000059604645,
        -1.1074862480163574
      ],
      "type": "VEC3"
    },
    {
      "bufferView": 2,
      "byteOffset": 76056,
      "componentType": 5126,
      "count": 304,
      "max": [
        0.8500339388847351,
        0.9999999403953552,
        0.9962096214294434
      ],
      "min": [
        -0.9141310453414917,
        -0.9999999403953552,
        -0.9299644231796265
      ],
      "type": "VEC3"
    },
    {
      "bufferView": 1,
      "byteOffset": 24136,
      "componentType": 5126,
      "count": 304,
      "max": [
        0.5182654857635498,
        0.2731497287750244
      ],
      "min": [
        0.42531558871269226,
        0.27314966917037964
      ],
      "type": "VEC2"
    },
    {
      "bufferView": 0,
      "byteOffset": 57984,
      "componentType": 5125,
      "count": 1056,
      "type": "SCALAR"
    },
    {
      "bufferView": 2,
      "byteOffset": 79704,
      "componentType": 5126,
      "count": 254,
      "max": [
        0.9886438250541687,
        2.4514172025646985e-08,
        0.9746231436729431
      ],
      "min": [
        -1.3949496746063232,
        -0.09000000357627869,
        -0.9408573508262634
      ],
      "type": "VEC3"
    },
    {
      "bufferView": 2,
      "byteOffset": 82752,
      "componentType": 5126,
      "count": 254,
      "max": [
        0.7014198303222656,
        1.0,
        0.9976145029067993
      ],
      "min": [
        -0.5798351764678955,
        -1.0,
        -0.8230910301208496
      ],
      "type": "VEC3"
    },
    {
      "bufferView": 1,
      "byteOffset": 26568,
      "componentType": 5126,
      "count": 254,
      "max": [
        0.26768285036087036,
        0.6626513004302979
      ],
      "min": [
        0.16573670506477356,
        0.3699207603931427
      ],
      "type": "VEC2"
    },
    {
      "bufferView": 0,
      "byteOffset": 62208,
      "componentType": 5125,
      "count": 912,
      "type": "SCALAR"
    },
    {
      "bufferView": 2,
      "byteOffset": 85800,
      "componentType": 5126,
      "count": 946,
      "max": [
        3.0745418071746826,
        0.0,
        0.9454450011253357
      ],
      "min": [
        -0.9938514828681946,
        -0.040000010281801224,
        -0.9513936042785645
      ],
      "type": "VEC3"
    },
    {
      "bufferView": 2,
      "byteOffset": 97152,
      "componentType": 5126,
      "count": 946,
      "max": [
        0.6402170658111572,
        1.0,
        0.537540853023529
      ],
      "min": [
        -0.6402196288108826,
        -1.0,
        -0.6651178002357483
      ],
      "type": "VEC3"
    },
    {
      "bufferView": 1,
      "byteOffset": 28600,
      "componentType": 5126,
      "count": 946,
      "max": [
        0.1786503791809082,
        0.3590368330478668
      ],
      "min": [
        0.16535362601280212,
        0.3590366840362549
      ],
      "type": "VEC2"
    },
    {
      "bufferView": 0,
      "byteOffset": 65856,
      "componentType": 5125,
      "count": 1440,
      "type": "SCALAR"
    }
  ],
  "asset": {
    "extras": {
      "author": "samsco (https://sketchfab.com/samsco)",
      "license": "CC-BY-4.0 (http://creativecommons.org/licenses/by/4.0/)",
      "source": "https://sketchfab.com/3d-models/airplane-low-poly-8b8327355b5e426db4f621fa91c9cdde",
      "title": "Airplane- Low-Poly"
    },
    "generator": "Sketchfab-13.96.0",
    "version": "2.0"
  },
  "bufferViews": [
    {
      "buffer": 0,
      "byteLength": 71616,
      "name": "floatBufferViews",
      "target": 34963
    },
    {
      "buffer": 0,
      "byteLength": 36168,
      "byteOffset": 71616,
      "byteStride": 8,
      "name": "floatBufferViews",
      "target": 34962
    },
    {
      "buffer": 0,
      "byteLength": 108504,
      "byteOffset": 107784,
      "byteStride": 12,
      "name": "floatBufferViews",
      "target": 34962
    }
  ],
  "buffers": [
    {
      "byteLength": 216288,
      "uri": "scene.bin"
    }
  ],
  "images": [
    {
      "uri": "textures/Material_baseColor.png"
    }
  ],
  "materials": [
    {
      "doubleSided": true,
      "name": "Material",
      "pbrMetallicRoughness": {
        "baseColorTexture": {
          "index": 0
        },
        "metallicFactor": 0.284404,
        "roughnessFactor": 0.822018
      }
    },
    {
      "doubleSided": true,
      "name": "Material.001",
      "pbrMetallicRoughness": {
        "baseColorTexture": {
          "index": 0
        },
        "metallicFactor": 0.596,
        "roughnessFactor": 0.866
      }
    }
  ],
  "meshes": [
    {
      "name": "Object_0",
      "primitives": [
        {
          "attributes": {
            "NORMAL": 1,
            "POSITION": 0,
            "TEXCOORD_0": 2
          },
          "indices": 3,
          "material": 0,
          "mode": 4
        }
      ]
    },
    {
      "name": "Object_1",
      "primitives": [
        {
          "attributes": {
            "NORMAL": 5,
            "POSITION": 4,
            "TEXCOORD_0": 6
          },
          "indices": 7,
          "material": 1,
          "mode": 4
        }
      ]
    },
    {
      "name": "Object_2",
      "primitives": [
        {
          "attributes": {
            "NORMAL": 9,
            "POSITION": 8,
            "TEXCOORD_0": 10
          },
          "indices": 11,
          "material": 0,
          "mode": 4
        }
      ]
    },
    {
      "name": "Object_3",
      "primitives": [
        {
          "attributes": {
            "NORMAL": 13,
            "POSITION": 12,
            "TEXCOORD_0": 14
          },
          "indices": 15,
          "material": 0,
          "mode": 4
        }
      ]
    }
  ],
  "nodes": [
    {
      "children": [
        1
      ],
      "matrix": [
        1.0,
        0.0,
        0.0,
        0.0,
        0.0,
        2.220446049250313e-16,
        -1.0,
        0.0,
        0.0,
        1.0,
        2.220446049250313e-16,
        0.0,
        0.0,
        0.0,
        0.0,
        1.0
      ],
      "name": "Sketchfab_model"
    },
    {
      "children": [
        2
      ],
      "name": "root"
    },
    {
      "children": [
        3
      ],
      "matrix": [
        1.0,
        0.0,
        0.0,
        0.0,
        0.0,
        2.220446049250313e-16,
        1.0,
        0.0,
        0.0,
        -1.0,
        2.220446049250313e-16,
        0.0,
        0.0,
        0.0,
        0.0,
        1.0
      ],
      "name": "GLTF_SceneRootNode"
    },
    {
      "children": [
        4,
        5,
        7,
        9
      ],
      "name": "Cube_3"
    },
    {
      "mesh": 0,
      "name": "Object_4"
    },
    {
      "children": [
        6
      ],
      "matrix": [
        0.8517015436812355,
        0.0,
        0.5240271753363565,
        0.0,
        0.0,
        1.0,
        0.0,
        0.0,
        -0.5240271753363565,
        -0.0,
        0.8517015436812355,
        0.0,
        1.1899914741516113,
        -2.0391623973846436,
        -35.21730422973633,
        1.0
      ],
      "name": "Plane_0"
    },
    {
      "mesh": 1,
      "name": "Object_6"
    },
    {
      "children": [
        8
      ],
      "matrix": [
        1.685873969314855e-07,
        -0.9999999999999857,
        -0.0,
        0.0,
        0.9999999999999857,
        1.685873969314855e-07,
        0.0,
        0.0,
        0.0,
        -0.0,
        1.0,
        0.0,
        0.0,
        -0.14351707696914673,
        -29.962303161621094,
        1.0
      ],
      "name": "Plane.001_1"
    },
    {
      "mesh": 2,
      "name": "Object_8"
    },
    {
      "children": [
        10
      ],
      "matrix": [
        0.792138397693634,
        0.0,
        0.0,
        0.0,
        0.0,
        1.0,
        0.0,
        0.0,
        0.0,
        0.0,
        0.34493300318717957,
        0.0,
        -0.824097216129303,
        -1.1069457530975342,
        -29.072229385375977,
        1.0
      ],
      "name": "Plane.002_2"
    },
    {
      "mesh": 3,
      "name": "Object_10"
    }
  ],
  "samplers": [
    {
      "magFilter": 9729,
      "minFilter": 9987,
      "wrapS": 10497,
      "wrapT": 10497
    }
  ],
  "scene": 0,
  "scenes": [
    {
      "name": "Sketchfab_Scene",
      "nodes": [
        0
      ]
    }
  ],
  "textures": [
    {
      "sampler": 0,
      "source": 0
    }
  ]
}
